<?xml version="1.0" encoding="UTF-8"?>
<svg width="18px" height="25px" viewBox="0 0 18 25" version="1.1" xmlns="http://www.w3.org/2000/svg" xmlns:xlink="http://www.w3.org/1999/xlink">
    <!-- Generator: Sketch 52.5 (67469) - http://www.bohemiancoding.com/sketch -->
    <title>chair</title>
    <desc>Created with Sketch.</desc>
    <g id="Page-1" stroke="none" stroke-width="1" fill="none" fill-rule="evenodd" stroke-linecap="round">
        <g id="chair" transform="translate(1.000000, 0.000000)" stroke="#4C4C4C" stroke-width="1.1">
            <path d="M1.9,10.6 L1,3.2 C0.9,2.6 1.3,2 2,1.8 L4.6,1.1 C6.6,0.6 8.8,0.6 10.8,1.1 L13.4,1.8 C14,2 14.4,2.5 14.3,3.1 L13.7,10.6" id="Path"></path>
            <path d="M1.1,10.8 L4.1,11.1 C6.4,11.4 8.7,11.4 10.9,11.1 L14.6,10.7 C14.6,10.7 17.1,11.8 14.6,13.2 C12,14.7 1.8,14 1.1,13.2 C0.4,12.5 -0.4,11.8 1.1,10.8 Z" id="Path"></path>
            <path d="M14.5,13.2 L15.2,23.5" id="Path"></path>
            <path d="M1.6,13.8 L1,23.5" id="Path"></path>
        </g>
    </g>
</svg>