<?xml version="1.0" encoding="UTF-8"?>
<svg width="24px" height="24px" viewBox="0 0 24 24" version="1.1" xmlns="http://www.w3.org/2000/svg" xmlns:xlink="http://www.w3.org/1999/xlink">
    <!-- Generator: Sketch 52.5 (67469) - http://www.bohemiancoding.com/sketch -->
    <title>coffee</title>
    <desc>Created with Sketch.</desc>
    <g id="Page-1" stroke="none" stroke-width="1" fill="none" fill-rule="evenodd" stroke-linecap="round">
        <g id="coffee" transform="translate(1.000000, 1.000000)" stroke="#4C4C4C" stroke-width="1.1">
            <path d="M21.9,9.4 C21.9,15.7 19.7,20.9 12.2,20.8 C5.4,20.7 2.6,15.7 2.5,9.4 L21.9,9.4 Z" id="Path"></path>
            <path d="M21.9,21.7 L2.4,21.7" id="Path"></path>
            <path d="M2.1,12.3 L2.6,12.3 C2.8,13.8 3.3,15.2 3.9,16.5 L2.1,16.5 C1,16.5 -4.4408921e-16,15.6 -4.4408921e-16,14.4 C0.1,13.2 1,12.3 2.1,12.3 Z" id="Path"></path>
            <path d="M10.3,0.3 C9.7,0.9 9.7,2 10.3,2.6 C10.9,3.2 10.9,4.3 10.3,4.9" id="Path"></path>
            <path d="M13.9,0.3 C13.3,0.9 13.3,2 13.9,2.6 C14.5,3.2 14.5,4.3 13.9,4.9" id="Path"></path>
        </g>
    </g>
</svg>