<?xml version="1.0" encoding="UTF-8"?>
<svg width="20px" height="22px" viewBox="0 0 20 22" version="1.1" xmlns="http://www.w3.org/2000/svg" xmlns:xlink="http://www.w3.org/1999/xlink">
    <!-- Generator: Sketch 52.5 (67469) - http://www.bohemiancoding.com/sketch -->
    <title>conference_phone</title>
    <desc>Created with Sketch.</desc>
    <g id="Page-1" stroke="none" stroke-width="1" fill="none" fill-rule="evenodd" stroke-linecap="round">
        <g id="conference_phone" stroke="#4C4C4C" stroke-width="1.1">
            <path d="M5,0.6 L1,3.8 C0.9,3.8 0.9,3.9 0.9,4 C0.8,4.8 0.4,9.3 5.2,15.3 C10,21.4 14.3,21.5 15,21.4 C15.1,21.4 15.1,21.4 15.2,21.3 L19,18.3 C19.2,18.2 19.2,17.9 19,17.8 L14,14 C13.9,13.9 13.7,13.9 13.6,14 L12,15.2 C11.9,15.3 11.8,15.3 11.7,15.2 C11.2,15 9.7,14.2 8.2,12.4 C6.7,10.5 6.2,8.8 6.1,8.2 C6.1,8.1 6.1,8 6.2,7.9 L7.6,6.8 C7.7,6.7 7.8,6.6 7.7,6.4 L5.5,0.7 C5.4,0.6 5.2,0.5 5,0.6 Z" id="Path"></path>
            <g id="Group" transform="translate(12.000000, 3.000000)">
                <path d="M3.6,0.2 L3.6,7.2" id="Path"></path>
                <path d="M7.2,3.8 L0.2,3.8" id="Path"></path>
            </g>
        </g>
    </g>
</svg>