<?xml version="1.0" encoding="UTF-8"?>
<svg width="24px" height="24px" viewBox="0 0 24 24" version="1.1" xmlns="http://www.w3.org/2000/svg" xmlns:xlink="http://www.w3.org/1999/xlink">
    <!-- Generator: Sketch 52.5 (67469) - http://www.bohemiancoding.com/sketch -->
    <title>kitchen</title>
    <desc>Created with Sketch.</desc>
    <g id="Page-1" stroke="none" stroke-width="1" fill="none" fill-rule="evenodd">
        <g id="kitchen" transform="translate(1.000000, 1.000000)" stroke="#4C4C4C" stroke-width="1.1">
            <path d="M20,21.8 L2,21.8 C0.9,21.8 0,20.9 0,19.8 L0,2.1 C0,1 0.9,0.1 2,0.1 L20,0.1 C21.1,0.1 22,1 22,2.1 L22,19.8 C21.9,21 21,21.8 20,21.8 Z" id="Path" stroke-linecap="round"></path>
            <path d="M0.1,6.5 L21.9,6.5" id="Path" stroke-linecap="round"></path>
            <path d="M17.4,19 L5,19 C4.2,19 3.6,18.4 3.6,17.6 L3.6,10.4 C3.6,9.6 4.2,9 5,9 L17.4,9 C18.2,9 18.8,9.6 18.8,10.4 L18.8,17.6 C18.8,18.4 18.1,19 17.4,19 Z" id="Path" stroke-linecap="round"></path>
            <path d="M7,9 L7,10.8 C7,11.1 7.3,11.4 7.6,11.4 L14.5,11.4 C14.8,11.4 15.1,11.1 15.1,10.8 L15.1,9" id="Path"></path>
            <circle id="Oval" stroke-linecap="round" cx="5.3" cy="3.3" r="1"></circle>
            <circle id="Oval" stroke-linecap="round" cx="11.1" cy="3.3" r="1"></circle>
            <circle id="Oval" stroke-linecap="round" cx="16.9" cy="3.3" r="1"></circle>
        </g>
    </g>
</svg>