<?xml version="1.0" ?><svg height="32" id="svg4152" version="1.1" viewBox="0 0 32 32" width="32" xmlns="http://www.w3.org/2000/svg" xmlns:cc="http://creativecommons.org/ns#" xmlns:dc="http://purl.org/dc/elements/1.1/" xmlns:inkscape="http://www.inkscape.org/namespaces/inkscape" xmlns:rdf="http://www.w3.org/1999/02/22-rdf-syntax-ns#" xmlns:sodipodi="http://sodipodi.sourceforge.net/DTD/sodipodi-0.dtd" xmlns:svg="http://www.w3.org/2000/svg"><defs id="defs4154"/><g id="layer1"><g id="g4499" style="fill:none;stroke:#0e6ea1;stroke-width:0.60567385;stroke-miterlimit:4;stroke-dasharray:none;stroke-opacity:1" transform="matrix(2.0120205,0,0,2.0120205,-16.192328,-16.192339)"><path d="m 20.8,14.105311 c 0,2.650967 -4.8,8.589407 -4.8,8.589407 0,0 -4.8,-5.93844 -4.8,-8.589407 0,-2.650967 2.149033,-4.7999997 4.8,-4.7999997 2.650967,0 4.8,2.1490327 4.8,4.7999997 z" id="path4493" style="opacity:1;fill:none;fill-opacity:1;stroke:#0e6ea1;stroke-width:0.60567385;stroke-linecap:round;stroke-linejoin:round;stroke-miterlimit:4;stroke-dasharray:none;stroke-opacity:1"/><path d="m 18,14 a 2,2 0 0 1 -2,2 2,2 0 0 1 -2,-2 2,2 0 0 1 2,-2 2,2 0 0 1 2,2 z" id="path4496" style="opacity:1;fill:none;fill-opacity:1;stroke:#0e6ea1;stroke-width:0.60567385;stroke-linecap:round;stroke-linejoin:round;stroke-miterlimit:4;stroke-dasharray:none;stroke-opacity:1"/></g></g></svg>