<svg xmlns="http://www.w3.org/2000/svg" width="14" height="17" viewBox="0 0 14 17">
    <g fill="none" fill-rule="evenodd" stroke="#4C4C4C" stroke-linecap="round" stroke-width="1.1">
        <path d="M5 10.755c-2.11.727-3.636 2.618-3.855 4.945 0 .29.219.582.51.582h10.327c.29 0 .582-.291.509-.582-.218-2.473-1.964-4.436-4.218-5.09"/>
        <path d="M8.273 10.318v1.6l-.364.073c-.945.29-2.036.218-2.982-.073v-1.382"/>
        <path d="M6.527 10.464h-.145c-1.818 0-3.346-1.528-3.346-3.346V4.064c0-1.819 1.528-3.346 3.346-3.346h.145c1.818 0 3.346 1.527 3.346 3.346v3.054a3.337 3.337 0 0 1-3.346 3.346z"/>
        <path d="M9.873 5.59c-2.473 0-4.364-1.963-4.364-1.963S4.055 5.591 3.036 5.591"/>
    </g>
</svg>
