<?xml version="1.0" encoding="UTF-8"?>
<svg width="26px" height="18px" viewBox="0 0 26 18" version="1.1" xmlns="http://www.w3.org/2000/svg" xmlns:xlink="http://www.w3.org/1999/xlink">
    <!-- Generator: Sketch 52.5 (67469) - http://www.bohemiancoding.com/sketch -->
    <title>projector</title>
    <desc>Created with Sketch.</desc>
    <g id="Page-1" stroke="none" stroke-width="1" fill="none" fill-rule="evenodd">
        <g id="projector" transform="translate(0.000000, 1.000000)" stroke="#4C4C4C" stroke-width="1.1">
            <path d="M13.3,12.2 L1.6,12.2 C1.2,12.2 0.9,11.9 0.9,11.5 L0.9,2.1 C0.9,1.7 1.2,1.4 1.6,1.4 L12.8,1.4" id="Path"></path>
            <path d="M19.5,1.4 L24.3,1.4 C24.7,1.4 25,1.7 25,2.1 L25,11.6 C25,12 24.7,12.3 24.3,12.3 L19,12.3" id="Path"></path>
            <path d="M12.7,1.5 C13.7,0.8 14.9,0.4 16.2,0.4 C19.6,0.4 22.4,3.2 22.4,6.6 C22.4,10 19.6,12.8 16.2,12.8 C12.8,12.8 10,10 10,6.6 C9.9,4.5 11,2.6 12.7,1.5" id="Path" stroke-linecap="round"></path>
            <path d="M16.2,3.4 C18,3.4 19.5,4.9 19.5,6.7" id="Path" stroke-linecap="round"></path>
            <path d="M22.5,12.3 L22.5,15.6" id="Path" stroke-linecap="round"></path>
            <path d="M3.4,12.2 L3.4,15.6" id="Path" stroke-linecap="round"></path>
            <path d="M4,5.8 L7.3,5.8" id="Path" stroke-linecap="round"></path>
            <path d="M4,8.8 L7.3,8.8" id="Path" stroke-linecap="round"></path>
        </g>
    </g>
</svg>