<?xml version="1.0" encoding="UTF-8"?>
<svg width="22px" height="22px" viewBox="0 0 22 22" version="1.1" xmlns="http://www.w3.org/2000/svg" xmlns:xlink="http://www.w3.org/1999/xlink">
    <!-- Generator: Sketch 52.5 (67469) - http://www.bohemiancoding.com/sketch -->
    <title>public_transit</title>
    <desc>Created with Sketch.</desc>
    <g id="Page-1" stroke="none" stroke-width="1" fill="none" fill-rule="evenodd" stroke-linecap="round">
        <g id="public_transit" stroke="#4C4C4C">
            <path d="M18.2,18.6 L3.7,18.6 C2.9,18.6 2.3,18 2.3,17.2 L2.3,2.2 C2.3,1.4 2.9,0.8 3.7,0.8 L18.2,0.8 C19,0.8 19.6,1.4 19.6,2.2 L19.6,17.2 C19.6,18 19,18.6 18.2,18.6 Z" id="Path" stroke-width="1.1"></path>
            <path d="M2.4,13 L19.6,13" id="Path" stroke-width="1.1"></path>
            <path d="M3.7,18.6 L3.7,20.4 C3.7,20.8 4.1,21.2 4.5,21.2 L5.9,21.2 C6.3,21.2 6.7,20.8 6.7,20.4 L6.7,18.6" id="Path" stroke-width="1.25"></path>
            <path d="M15.5,18.6 L15.5,20.4 C15.5,20.8 15.9,21.2 16.3,21.2 L17.7,21.2 C18.1,21.2 18.5,20.8 18.5,20.4 L18.5,18.6" id="Path" stroke-width="1.25"></path>
            <path d="M6.9,16.7 L5,16.7 C4.8,16.7 4.6,16.5 4.6,16.3 L4.6,15.1 C4.6,14.9 4.8,14.7 5,14.7 L6.9,14.7 C7.1,14.7 7.3,14.9 7.3,15.1 L7.3,16.3 C7.3,16.6 7.1,16.7 6.9,16.7 Z" id="Path" stroke-width="1.1"></path>
            <path d="M16.8,16.7 L14.9,16.7 C14.7,16.7 14.5,16.5 14.5,16.3 L14.5,15.1 C14.5,14.9 14.7,14.7 14.9,14.7 L16.8,14.7 C17,14.7 17.2,14.9 17.2,15.1 L17.2,16.3 C17.1,16.6 17,16.7 16.8,16.7 Z" id="Path" stroke-width="1.1"></path>
            <path d="M2.6,2.9 L19.6,2.9" id="Path" stroke-width="1.1"></path>
            <path d="M11.3,2.9 L11.3,12.5" id="Path" stroke-width="1.1"></path>
            <path d="M2,11 C1.4,11 0.9,10.5 0.9,9.9 L0.9,6.9 C0.9,6.3 1.4,5.8 2,5.8" id="Path" stroke-width="1.1"></path>
            <path d="M20,5.8 C20.6,5.8 21.1,6.3 21.1,6.9 L21.1,9.9 C21.1,10.5 20.6,11 20,11" id="Path" stroke-width="1.1"></path>
        </g>
    </g>
</svg>