<?xml version="1.0" encoding="UTF-8"?>
<svg width="21px" height="21px" viewBox="0 0 21 21" version="1.1" xmlns="http://www.w3.org/2000/svg" xmlns:xlink="http://www.w3.org/1999/xlink">
    <!-- Generator: Sketch 52.5 (67469) - http://www.bohemiancoding.com/sketch -->
    <title>toilet</title>
    <desc>Created with Sketch.</desc>
    <g id="Page-1" stroke="none" stroke-width="1" fill="none" fill-rule="evenodd" stroke-linecap="round">
        <g id="toilet" stroke="#4C4C4C" stroke-width="1.1">
            <ellipse id="Oval" cx="7.4" cy="4.2" rx="2.7" ry="1.3"></ellipse>
            <path d="M1,3.4 L1,16.1 C1,16.1 1.8,19.8 8,19.8 L19,19.8 C19.3,19.8 19.6,19.5 19.6,19.2 L19.6,8 C19.6,7.7 19.3,7.4 19,7.4 L8,7.4 C8,7.4 0.6,8 1,3.4 Z" id="Path"></path>
            <path d="M13.7,6.8 L13.7,4.5 C13.7,3.6 13.3,2.7 12.6,2.1 C11.8,1.4 10.4,0.6 8.3,0.6 C4.5,0.6 2.2,1.1 1,3.4" id="Path"></path>
            <g id="Group" transform="translate(8.000000, 7.000000)">
                <path d="M0.8,0.4 L0.8,0.6" id="Path"></path>
                <path d="M0.8,4.5 L0.8,10.8" id="Path" stroke-dasharray="0.2438,3.9"></path>
                <path d="M0.8,12.7 L0.8,12.9" id="Path"></path>
            </g>
        </g>
    </g>
</svg>