<?xml version="1.0" encoding="iso-8859-1"?>
<!-- Generator: Adobe Illustrator 19.0.0, SVG Export Plug-In . SVG Version: 6.00 Build 0)  -->
<svg version="1.1" id="Capa_1" xmlns="http://www.w3.org/2000/svg" xmlns:xlink="http://www.w3.org/1999/xlink" x="0px" y="0px"
	 viewBox="0 0 512.001 512.001" style="enable-background:new 0 0 512.001 512.001;" xml:space="preserve">
<path style="fill:#FEDB41;" d="M106.674,499.254c-3.125,0-6.232-0.975-8.852-2.889c-4.598-3.36-6.896-9.034-5.934-14.646
	l26.995-157.393L4.53,212.858c-4.088-3.985-5.56-9.946-3.795-15.376c1.764-5.43,6.458-9.388,12.108-10.209l158.133-22.978
	l72.645-143.329c2.567-5.067,7.789-8.265,13.459-8.219c5.681,0.03,10.857,3.267,13.372,8.361l70.674,143.201l158.032,22.964
	c5.65,0.821,10.345,4.779,12.108,10.209c1.765,5.43,0.293,11.391-3.796,15.376L393.118,324.325l26.995,157.393
	c0.965,5.627-1.349,11.315-5.968,14.671c-4.618,3.355-10.739,3.799-15.797,1.142l-141.394-74.335L113.58,497.57
	C111.404,498.697,109.034,499.254,106.674,499.254z M47.235,212.591l98.236,95.756c3.535,3.446,5.148,8.411,4.314,13.277
	L126.559,457.04l123.534-64.082c4.356-2.26,9.543-2.247,13.887,0.038l121.426,63.837l-23.19-135.21
	c-0.835-4.866,0.778-9.831,4.314-13.277l98.235-95.756l-135.759-19.727c-4.886-0.71-9.108-3.778-11.294-8.206L256.82,61.277
	l-62.606,123.522c-2.206,4.353-6.393,7.361-11.223,8.063L47.235,212.591z"/>
<g>
</g>
<g>
</g>
<g>
</g>
<g>
</g>
<g>
</g>
<g>
</g>
<g>
</g>
<g>
</g>
<g>
</g>
<g>
</g>
<g>
</g>
<g>
</g>
<g>
</g>
<g>
</g>
<g>
</g>
</svg>
