<?xml version="1.0" encoding="UTF-8"?>
<svg width="24px" height="24px" viewBox="0 0 24 24" version="1.1" xmlns="http://www.w3.org/2000/svg" xmlns:xlink="http://www.w3.org/1999/xlink">
    <!-- Generator: Sketch 52.5 (67469) - http://www.bohemiancoding.com/sketch -->
    <title>whiteboard</title>
    <desc>Created with Sketch.</desc>
    <g id="Page-1" stroke="none" stroke-width="1" fill="none" fill-rule="evenodd" stroke-linecap="round">
        <g id="whiteboard" transform="translate(1.000000, 1.000000)" stroke="#4C4C4C" stroke-width="1.1">
            <path d="M17.9,12.6 L4.1,12.6 C3.6,12.6 3.2,12.2 3.2,11.7 C3.2,11.2 3.6,10.8 4.1,10.8 L17.9,10.8 C18.4,10.8 18.8,11.2 18.8,11.7 C18.8,12.2 18.4,12.6 17.9,12.6 Z" id="Path"></path>
            <path d="M20.6,12.8 L1.4,12.8 C0.9,12.8 0.5,12.4 0.5,11.9 L0.5,1.3 C0.5,0.8 0.9,0.4 1.4,0.4 L20.7,0.4 C21.2,0.4 21.6,0.8 21.6,1.3 L21.6,11.9 C21.5,12.4 21.1,12.8 20.6,12.8 Z" id="Path"></path>
            <path d="M11.2,13 L11.3,21.8" id="Path"></path>
            <path d="M11.3,12.9 L19.7,21.4" id="Path"></path>
            <path d="M11.3,12.9 L3.1,21.3" id="Path"></path>
        </g>
    </g>
</svg>